<svg height='100px' width='100px'  fill="#8C9BA5" xmlns="http://www.w3.org/2000/svg" xmlns:xlink="http://www.w3.org/1999/xlink" version="1.1" x="0px" y="0px" viewBox="0 0 91 91" style="enable-background:new 0 0 91 91;" xml:space="preserve"><g><g><path d="M52.1,42.6c-4.4,8-8.3,15.9-4.7,24.9c1.7,4.3,3.1,8.4,0.6,12.7c-2.7,4.6-7.8,4.2-10.9,0.5c-5.3-6.2-8-14.5-8.8-22.5    c-0.9-8.4-0.4-17.8,4.3-25.1c2.5-3.9,6.5-6.8,11.1-7.8c5.4-1.2,9.9,1.5,14.6,3.7c0.8,0.3,1.9-0.4,1.3-1.3c-2.9-4.3-6.9-7.5-12.2-8    c-4.8-0.4-9.8,1.1-13.7,4C24.9,30.1,22,41.4,21.9,51.8c-0.1,10.2,2.2,20.9,7.9,29.4c1.3,1.9,2.8,3.9,4.5,5.5    c2,1.9,4.3,2.5,6.9,2.9c5.4,0.8,10.1-2.4,12.3-7.2c2.9-6.1,1.3-11.4-1-17.3c-2.7-7.2,1-13.4,4.5-19.6    C58.9,42.3,53.9,39.4,52.1,42.6z"></path><path d="M59.1,32.4c-1.6-0.6-3.9,0.3-4.2,2c0,0.2-0.1,0.4,0,0.6c-0.1,0.4-0.2,0.8-0.1,1.3c0.2,0.9,0.7,1.5,1.5,1.9    c1.6,0.8,3.5,0.2,4.4-1.4c0.4-0.7,0.6-1.7,0.4-2.5C60.8,33.4,60.1,32.7,59.1,32.4z"></path><path d="M63.7,7.8c-3.3,2-5.6,5.6-4.8,9.5c1,5.1,6.5,5.8,7.1,5.8c5.6,0.1,9.3-5.6,9-10.8C74.8,6.4,68.1,5.1,63.7,7.8z M68.7,15.9    c-0.8,1.2-2,1.7-3.4,1.7c-0.5,0-0.8-0.5-1-0.8c-0.4-0.8-0.2-1.5,0.1-2.3c0.6-1.4,4.2-3.9,5.2-2.2C70,13.1,69.1,15.2,68.7,15.9z"></path><path d="M55.4,12.2c1.5-2.1,3.6-3.6,3.6-6.5c0-2.6-2.2-4.7-4.8-4.2c-2.5,0.5-3.9,2.9-4.2,5.3c-0.2,1.5,0,3.5,0.9,4.9    C51.4,13.5,54.2,13.9,55.4,12.2z"></path><path d="M43.4,13.7c1.2,0.7,2.9,0.5,3.3-1.4c0.6-2.5,1.8-4.8,0.8-7.4c-0.9-2.3-3.5-3.8-5.8-2.4c-2.3,1.3-2.7,3.9-2.1,6.2    C39.9,10.5,41.5,13.2,43.4,13.7z"></path><path d="M35.6,17.1c0.6,0.2,1.3,0.2,1.8,0c1.2-0.5,1.6-1.6,1.4-2.8c-0.4-2.8,0-5.8-2.6-7.6c-2.1-1.4-4.8-0.9-6,1.4    c-1.1,2.1-0.3,4.6,1.2,6.3C32.3,15.6,34,16.9,35.6,17.1z"></path><path d="M25.7,12.9c-1.9-0.1-3.4,1.5-3.6,3.3c-0.3,2.4,1.8,4.4,3.8,5.4c1.7,0.9,5.3,1,5-1.9c-0.1-0.9-0.6-2.6-0.9-3.3    c-0.3-0.8-0.8-1.4-1.3-2C27.8,13.6,26.8,13,25.7,12.9z"></path></g></g></svg>