<svg height='100px' width='100px'  fill="#32c633" xmlns="http://www.w3.org/2000/svg" xmlns:xlink="http://www.w3.org/1999/xlink" version="1.1" x="0px" y="0px" viewBox="0 0 100 100" style="enable-background:new 0 0 100 100;" xml:space="preserve"><title>Leaf_set20_o1</title><path d="M82,12.7L82,12.7c-0.3-0.4-0.4-0.7-1-0.7c-0.1,0-19.4,2.9-34.2,13.4C28.1,38.8,18.2,61.1,25.7,82c-5,2-9.2,2.5-12.9,1.4  c-1.9-0.7-2.9,2.4-0.8,2.9c5.1,1.5,10.4,0.4,15.2-1.6c0.9,0.7,8.3,3.5,16.6,3.5C79,88.1,101.5,47.9,82,12.7z M78.1,15.5  c-3.4,7.5-6.6,15-10.5,22.3l-5.4-17.5C67.4,18.3,72.7,16.7,78.1,15.5L78.1,15.5z M59.5,21.5l6.2,20c-3.2,5.8-6.4,10.9-10.6,16.3  c-9.1-29.5-8.7-28.3-8.8-28.4C50.4,26.3,54.8,23.7,59.5,21.5z M43.8,31.5l9,29.2c-3.3,4-7,7.7-11,11.1c-9-29.3-8.4-27.6-8.6-27.9  C36.2,39.2,39.7,35.1,43.8,31.5z M28.4,80.7c-3.6-10.5-2.9-22.3,2.8-33.3l8.1,26.4C33,78.8,28.9,80.4,28.4,80.7z M64.2,79.6  c-10.1,5.9-22.3,7.1-33.4,3.3l0,0c3.7-2,7.3-4.3,10.6-6.8c0.7,0.1,27.8,0,27.9,0C67.7,77.3,66,78.5,64.2,79.6z M72.6,73.1H45  c3.6-3.1,6.9-6.5,9.9-10.2h25.4C78.2,66.6,75.6,70,72.6,73.1z M81.8,59.9H57.3c4.3-5.6,7.7-10.9,10.8-16.6h17.9  C85.7,49,84.3,54.7,81.8,59.9z M69.8,40.3c4.2-7.9,7.6-15.8,11-23.4c3.5,7.3,5.3,15.3,5.3,23.4H69.8z"></path></svg>